<svg width="92" height="101" vieox="0 0 92 101" fill="none" xmlns="http://www.w3.org/2000/svg">
<path d="M23.71 63.6491H76.0657V101H23.71V63.6491Z" fill="FFCB49"/>
<path d="M49.8877 63.6491H76.0657V101H49.8877V63.6491Z" fill="#FFAC47"/>
<path d="M23.71 63.6491L18.0186 75.4641H45.1449L49.8877 63.6491H23.71Z" fill="FFEB7A"/>
<path d="M76.0657 63.6491L81.7559 75.4641H45.6295L49.8877 63.6491H76.0657Z" fill="FFEB7A"/>
<path d="M27.3142 39.6377L24.4688 45.7359C31.2978 49.8521 35.1549 56.8522 36.2298 59.8377C35.3193 48.0989 29.9067 41.4799 27.3142 39.6377Z" fill="FFAC47"/>
<path d="M72.4173 39.6377L75.2627 45.7359C68.4337 49.8521 64.5766 56.8522 63.5016 59.8377C64.4122 48.0989 69.9067 41.4799 72.4173 39.6377Z" fill="6DD177"/>
<path d="M42.6793 60.7906C43.5014 55.9629 43.3243 44.2113 36.04 35.8264" stroke="#499CEA" stroke-width="1.90566" stroke-linecap="round"/>
<path d="M57.0511 60.7906C56.2291 55.9629 56.4062 44.2113 63.6904 35.8264" stroke="#FFAD09" stroke-width="1.90566" stroke-linecap="round"/>
<path d="M49.8877 60.9811V42.6868" stroke="FF7B52" stroke-width="1.90566" stroke-linecap="round"/>
<path d="M48.2473 19.7301C48.7024 18.3229 51.1484 19.7301L51 21.9589C52.0727 22.588 52.6586 23.0143 53.3198 23.0143H55.6674C57.1425 23.0143 57.7577 24.9005 56.5662 25.7702L54.6549 27.1652C54.123 27.5534 28.2392 54.1032 28.8658L54.8304 31.1141C55.285 32.5199 53.6744 33.6857 52.481 32.8147L50.5966 31.4393C50.0612 31.0485 49.3345 31.0485 48.7991 31.4393L46.9147 32.8147C45.7212 33.6857 44.1106 32.5199 44.5653 31.1141L45.2925 28.8658C45.4952 28.2392 45.2726 27.5534 44.7408 27.1652L42.8295 25.7702C41.638 24.9005 42.2531 23.0143 43.7283 23.0143H46.0759C46.0759C46.7371 23.0143 47.3229 22.588 47.5264 21.9589L48.2473 19.7301Z" fill="FFCB49"/>
<path d="M14.5051 37.1944C13.7655 36.3692 14.5074 35.0783 15.5886 35.3092L17.0388 35.6188C17.5224 35.7221 18.0166 35.5015 18.2633 35.0722L19.0019 33.7872C19.5541 32.8263 21.0106 33.1392 21.1261 34.2435L21.2799 35.7137C21.3317 36.208 21.6951 36.6131 22.1797 36.7166L23.6224 37.0246C24.7041 37.2556 24.8623 38.7399 23.8534 39.1912L22.4977 39.7975C22.0472 39.999 21.7774 40.4685 21.829 40.9612L21.9841 42.4438C22.0995 43.5472 20.7409 44.1517 20.0009 43.3261L19.0139 42.225C18.6824 41.8551 18.1515 41.7415 17.6995 41.9437L16.3552 42.5449C15.3454 42.9966 14.3475 41.8858 14.8997 40.925L15.6382 39.6399C15.8849 39.2107 15.828 38.6704 15.4972 38.3013L14.5051 37.1944Z" fill="FFCB49"/>
<path d="M85.1502 37.1944C85.8898 36.3692 85.1479 35.0783 84.0667 35.3092L82.6165 35.6188C82.1329 35.7221 81.6386 35.5015 81.3919 35.0722L80.6534 33.7872C80.1012 32.8263 78.6447 33.1392 78.5291 34.2435L78.3753 35.7137C78.3236 36.208 77.9602 36.6131 77.4756 36.7166L76.0329 37.0246C74.9512 37.2556 74.7929 38.7399 75.8019 39.1912L77.1576 39.7975C77.608 39.999 77.8779 40.4685 77.8263 40.9612L77.6712 42.4438C77.5558 43.5472 78.9144 44.1517 79.6544 43.3261L80.6413 42.225C80.9728 41.8551 81.5038 41.7415 81.9558 41.9437L83.3001 42.5449C84.3098 42.9966 85.3078 41.8858 84.7556 40.925L83.017 39.6399C83.7703 39.2107 83.8273 38.6704 84.1581 38.3013L85.1502 37.1944Z" fill="FFCB49"/>
<path d="M21.8125 26.7307L27.6075 24.4538" stroke="#FFCB49" stroke-width="1.90566" stroke-linecap="round"/>
<path d="M43.0586 5.33585L49.3185 10.6717" stroke="#6DD177" stroke-width="1.90566" stroke-linecap="round"/>
<path d="M74.1807 23.3337L69.9136 26.3004" stroke="#499CEA" stroke-width="1.90566" stroke-linecap="round"/>
<ellipse cx="34.1438" cy="33.7302" rx="0.948473" ry="0.95283" fill="#FFAD09"/>
<ellipse cx="65.633" cy="33.7302" rx="0.948473" ry="0.95283" fill="#499CEA"/>
<ellipse cx="67.5295" cy="31.4434" rx="0.948473" ry="0.95283" fill="#FF7B52"/>
<ellipse cx="49.8655" cy="39.8283" rx="0.948473" ry="0.95283" fill="#FFCB49"/>
<ellipse cx="49.8655" cy="36.7792" rx="0.948473" ry="0.95283" fill="#6DD177"/>
<ellipse cx="31.8674" cy="31.4434" rx="0.948473" ry="0.95283" fill="#FF7B52"/>
<rect y="13.6679" width="2.65572" height="2.66792" fill="#FF7B52"/>
<rect x="2.65625" y="16.3358" width="2.65572" height="2.66792" fill="#FF7B52"/>
<rect x="2.65625" y="11" width="2.65572" height="2.66792" fill="#FF7B52"/>
<rect x="5.31152" y="13.6679" width="2.65572" height="2.66792" fill="#FF7B52"/>
<rect x="6.96777" y="68.6679" width="2.65572" height="2.66792" fill="#FF7B52"/>
<rect x="9.62402" y="71.3358" width="2.65572" height="2.66792" fill="#FF7B52"/>
<rect x="9.62402" y="66" width="2.65572" height="2.66792" fill="#FF7B52"/>
<rect x="12.2793" y="68.6679" width="2.65572" height="2.66792" fill="#FF7B52"/>
<rect x="76.0654" y="2.66792" width="2.65572" height="2.66792" fill="#FF7B52"/>
<rect x="78.7217" y="5.33585" width="2.65572" height="2.66792" fill="#FF7B52"/>
<rect x="78.7217" width="2.65572" height="2.66792" fill="#FF7B52"/>
<rect x="81.377" y="2.66792" width="2.65572" height="2.66792" fill="#FF7B52"/>
<rect x="84.0332" y="80.8" width="2.65572" height="2.66792" fill="#FF7B52"/>
<rect x="86.6885" y="83.4679" width="2.65572" height="2.66792" fill="#FF7B52"/>
<rect x="86.6885" y="78.1321" width="2.65572" height="2.66792" fill="#FF7B52"/>
<rect x="89.3447" y="80.8" width="2.65572" height="2.66792" fill="#FF7B52"/>
</svg>